<?xml version="1.0" standalone="no"?><!DOCTYPE svg PUBLIC "-//W3C//DTD SVG 1.1//EN" "http://www.w3.org/Graphics/SVG/1.1/DTD/svg11.dtd"><svg t="1702223751780" class="icon" viewBox="0 0 1024 1024" version="1.1" xmlns="http://www.w3.org/2000/svg" p-id="1581" xmlns:xlink="http://www.w3.org/1999/xlink" width="200" height="200"><path d="M704 96c70.72 0.032 128 57.216 128 127.744v192.64a319.616 319.616 0 0 1-256 312.96v70.368h64a56.704 56.704 0 0 1 48 16c12.608 12.576 18.56 30.304 16 47.904a56.416 56.416 0 0 1-16 47.84 56.704 56.704 0 0 1-48 16h-256a56.704 56.704 0 0 1-47.936-16 56.384 56.384 0 0 1-16-47.84 56.384 56.384 0 0 1 15.968-47.872 56.704 56.704 0 0 1 47.936-16.032h64v-70.4A319.616 319.616 0 0 1 192 416.32V223.744A127.904 127.904 0 0 1 320.064 96h384H704zM72 224h83.968c2.24 0 4.032 1.856 4.032 4.16V512c-88.32 0-159.968-73.664-160-164.544V298.048C0 257.184 32.256 224 72 224z m795.968 0h84.032C991.744 224 1024 257.184 1024 298.048v49.408c-0.032 90.88-71.68 164.48-160 164.544V228.16c0-2.272 1.76-4.16 3.968-4.16z" fill="#F89F19" p-id="1582"></path><path d="M512 464l-94.048 49.44 17.952-104.704-76.064-74.176 105.152-15.296L512 224l47.04 95.264 105.12 15.296-76.064 74.176 17.92 104.704z" fill="#FFFFFF" p-id="1583"></path></svg>